<svg xmlns="http://www.w3.org/2000/svg" viewBox="0 0 80 80">
  <defs>
    <style>
      .a {
        fill: #ff7000;
      }

      .b {
        fill: #fff;
      }
    </style>
  </defs>
  <title>logo</title>
  <g>
    <polygon class="a" points="0 40 40 0 80 40.01 40 80 0 40"/>
    <path class="b" d="M20.38,33h-2.8l-2.8,2.8h4.67a1.87,1.87,0,0,1,1.87,1.87H17.58a4.68,4.68,0,0,0,0,9.35h2.8a4.66,4.66,0,0,0,4.67-4.67V37.68A4.66,4.66,0,0,0,20.38,33m.94,9.34a1.87,1.87,0,0,1-1.87,1.87h-.94a1.87,1.87,0,0,1,0-3.74h2.81Z"/>
    <path class="b" d="M39.07,32.08a4.67,4.67,0,0,0-4.68-4.67h-2.8l-2.8,2.79h4.67a1.86,1.86,0,0,1,1.87,1.87V33H31.59a4.67,4.67,0,0,0-4.66,4.67v4.67A4.68,4.68,0,0,0,31.59,47H34.4a4.67,4.67,0,0,0,4.67-4.67ZM35.33,42.35a1.87,1.87,0,0,1-1.86,1.87h-.95a1.87,1.87,0,0,1-1.86-1.87V37.68a1.87,1.87,0,0,1,1.87-1.87h2.8Z"/>
    <path class="b" d="M53.08,37.68A4.67,4.67,0,0,0,48.41,33h-2.8a4.67,4.67,0,0,0-4.67,4.67v4.67A4.66,4.66,0,0,0,45.61,47h2.8a4.67,4.67,0,0,0,4.67-4.67Zm-3.73,4.67a1.87,1.87,0,0,1-1.87,1.87h-.94a1.87,1.87,0,0,1-1.87-1.87V37.68a1.87,1.87,0,0,1,1.87-1.87h.94a1.87,1.87,0,0,1,1.87,1.87Z"/>
    <path class="b" d="M67.1,37.68A4.68,4.68,0,0,0,62.43,33H59.62A4.67,4.67,0,0,0,55,37.68V54.5l3.73-3.74V47h3.73a4.67,4.67,0,0,0,4.68-4.67V37.68m-3.74,4.67a1.87,1.87,0,0,1-1.87,1.87H58.68V37.68a1.87,1.87,0,0,1,1.87-1.87h.93a1.87,1.87,0,0,1,1.87,1.87Z"/>
  </g>
</svg>
